# xmcd
#
# Track frame offsets:
#	150
#	16680
#	28880
#	41345
#	60697
#	76815
#	94915
#	108315
#	125110
#	136707
#	154255
#	170362
#	181052
#	194510
#	210680
#	224620
#	236180
#	252680
#	267572
#	278472
#	292755
#	305947
#
# Disc length: 4245 seconds
#
# Revision: 2
# Processed by: cddbd v1.4PL0 Copyright (c) Steve Scherf et al.
# Submitted via: MusicWizard 6.0.2
#
DISCID=46109316
DTITLE=Various Artist - Country's Greatest Hits
DYEAR=1900
DGENRE=Country
TTITLE0=Kenny Rogers - Lucille
TTITLE1=Tammy Wynette - Stand By Your Man
TTITLE2=Glen Campbell - By The Time I Get To Phoenix
TTITLE3=Bobbie Gentry - Ode To Billy Joe
TTITLE4=Willie Nelson - Always On My Mind
TTITLE5=Bobby Goldsboro - Honey
TTITLE6=Lynn Anderson - Rose Garden
TTITLE7=Johnny Cash - A Boy Named Sue
TTITLE8=Crystal Gayle - Don't It Make My Brown Eyes Blue
TTITLE9=Willie Nelson - Funny How Time Slips Away
TTITLE10=Joe South - Games People Play
TTITLE11=Jim Reeves - He'll Have To Go
TTITLE12=Charlie Rich - Behind Closed Doors
TTITLE13=Billie Joe Spears - Blanket On The Ground
TTITLE14=Dolly Parton - Coat Of Many Colours
TTITLE15=Don Gibson - Oh Lonesome Me
TTITLE16=Waylon Jennings - I Ain't Living Long Like This
TTITLE17=Glen Campbell - Rhinestone Cowboy
TTITLE18=Slim Whitman - Rose Marie
TTITLE19=Charlie Rich - We Love Each Other
TTITLE20=Marty Robbins - Devil Woman
TTITLE21=Waylon Jennings - Mason Dixon Line
EXTD=
EXTT0=KENNY Rogers
EXTT1=TAMMY Wynette
EXTT2=GLEN Campbell
EXTT3=BOBBIE Gentry
EXTT4=WILLY Nelson
EXTT5=BOBBY Goldsboro
EXTT6=LYNN Anderson
EXTT7=JOHNNY Cash
EXTT8=CRYSTAL Gale
EXTT9=WILLY Nelson
EXTT10=JOE South
EXTT11=JIM Reeves
EXTT12=CHARLIE Rich
EXTT13=BILLY Joe Spears
EXTT14=DOLLY Parton
EXTT15=DON Gibson
EXTT16=WAYLON Jennings
EXTT17=GLEN Campbell
EXTT18=SLIM Whitman
EXTT19=CHARLIE Rich
EXTT20=MARTY Robbins
EXTT21=WAYLON Jennings
PLAYORDER=
